<svg height="48" viewBox="0 0 144 48" width="144" xmlns="http://www.w3.org/2000/svg" xmlns:xlink="http://www.w3.org/1999/xlink"><mask id="a" fill="#fff"><path d="m0 0h144v48h-144z" fill="#fff" fill-rule="evenodd"/></mask><g fill="none" fill-rule="evenodd"><path d="m132.531889-.04804805h-121.0577614c-.4416366 0-.8772564 0-1.3176896.0024024-.36823102.00240241-.73405533.00960961-1.10589648.01561562-.80144405.01921922-1.61131168.06846847-2.41155235.21141141-.80505415.14174174-1.55354994.38198198-2.2876053.75315316-.71961492.36876876-1.377858.84684684-1.94705174 1.41621621-.57641396.56936937-1.05294826 1.22882883-1.41877256 1.94714715-.3742479.73153153-.61131168 1.48228228-.7521059 2.28588588-.14440433.7963964-.19494585 1.6012012-.21540313 2.40480481-.01083032.36876877-.01203369.73873874-.01805054 1.10630631v1.3117117 25.1399399 1.3141142c.00601685.3723723.00722022.7339339.01805054 1.1063063.02045728.8048048.0709988 1.6096096.21540313 2.4048048.14079422.8048048.377858 1.5591591.7521059 2.2882883.3658243.7147147.8423586 1.3741741 1.41877256 1.9387387.56919374.5741742 1.22743682 1.051051 1.94705174 1.4162162.73405536.3747748 1.48255115.6126126 2.2876053.757958.80024067.1429429 1.6101083.1897898 2.41155235.2114114.37184115.0084084.73766546.0132132 1.10589648.0132132.4404332.0024024.876053.0024024 1.3176896.0024024h121.0577614c.434417 0 .872443 0 1.304453-.0024024.368231 0 .743682-.0048048 1.11071-.0132132.806257-.0216216 1.614922-.0684685 2.406739-.2114114.806257-.1453454 1.554753-.3831832 2.296028-.757958.718412-.3651652 1.376655-.842042 1.947052-1.4162162.571601-.5645646 1.049338-1.224024 1.419976-1.9387387.369435-.7291292.610108-1.4834835.744886-2.2882883.149218-.7951952.194946-1.6.22503-2.4048048.00361-.3723724.00361-.733934.00361-1.1063063.009627-.4372373.009627-.8708709.009627-1.3141142v-25.1399399c0-.4396396 0-.8756757-.009627-1.3117117 0-.36756757 0-.73753754-.00361-1.10630631-.030084-.80360361-.075812-1.60840841-.22503-2.40480481-.134778-.8036036-.375451-1.55435435-.744886-2.28588588-.370638-.71831832-.848375-1.37777778-1.419976-1.94714715-.570397-.56936937-1.22864-1.04744745-1.947052-1.41621621-.741275-.37117118-1.489771-.61141142-2.296028-.75315316-.791817-.14294294-1.600482-.19219219-2.406739-.21141141-.367028-.00600601-.742479-.01321321-1.11071-.01561562-.43201-.0024024-.870036-.0024024-1.304453-.0024024" fill="#a9aaa9" mask="url(#a)"/><path d="m10.1624549 46.9489489c-.3670277 0-.72442843-.0048048-1.087846-.0132132-.67388688-.018018-1.47172081-.0564564-2.25030084-.1957958-.73405535-.1321321-1.38628159-.3483483-1.99277978-.6582582-.62815885-.3171171-1.19253911-.7279279-1.6811071-1.2204204-.49819495-.4888889-.90854392-1.0486487-1.22864019-1.6780781-.31167269-.6066066-.52466908-1.2576577-.65342961-1.9903904-.14681107-.8084084-.18411552-1.6276276-.19975932-2.2522523-.00842359-.2534534-.01805054-1.0966967-.01805054-1.0966967v-27.7489489s.01083032-.83003004.01805054-1.07387388c.0156438-.62942943.05294825-1.44864865.19855595-2.24864865.12876053-.73753754.34175692-1.38858859.65463298-1.99639639.3188929-.63063063.72924187-1.193994 1.22141997-1.67927928.49699158-.4972973 1.06377858-.90930931 1.68712395-1.22882883.61853189-.31351352 1.26955475-.52732733 1.98916967-.65345346.811071-.14414414 1.63176896-.18138138 2.25752106-.19699699l1.08543926-.01441442h123.6678701l1.098676.01561562c.617329.01441441 1.43923.05165165 2.237064.19459459.724428.12732733 1.381468.34234235 2.01083.65825826.617329.31591592 1.181709.72792793 1.673887 1.22042042.494585.48768769.904934 1.05465466 1.23225 1.68648649.31047.61381381.521059 1.26486486.645007 1.98078078.138387.75795796.181708 1.53633634.208182 2.26666667.003611.33993994.003611.7063063.003611 1.06906907.01083.4504504.01083.8792793.01083 1.3117117v25.1399399c0 .4360361 0 .8624625-.01083 1.2912913 0 .3903904 0 .7483484-.004814 1.1171172-.025271.7075075-.068592 1.4846846-.205776 2.2258258-.125151.7363363-.33574 1.3873874-.64982 2.006006-.323706.6246246-.736462 1.187988-1.22142 1.6648649-.498195.5021021-1.062575.9117117-1.683513 1.2276276-.625753.3171171-1.262335.5273273-2.008424.6606606-.770156.1393394-1.56799.1777778-2.249097.1957958-.351384.0084084-.722022.0132132-1.080626.0132132l-1.304453.0024025z" fill="#000"/><g fill="#fffffe"><path d="m29.8062575 24.3375375c-.0300842-3.3045045 2.709988-4.9129129 2.8363418-4.9885886-1.5523466-2.2582582-3.9590855-2.5669669-4.8038508-2.5909909-2.0204573-.2126127-3.9795427 1.2072072-5.009627 1.2072072-1.0493381 0-2.6341757-1.1867868-4.3417569-1.1507508-2.1973526.0336336-4.2551143 1.3045045-5.3826715 3.2768769-2.3273164 4.0216216-.5908544 9.9327327 1.6377858 13.1831832 1.1155235 1.5927928 2.4187726 3.3717717 4.1251505 3.3081081 1.6690734-.0684685 2.2924187-1.0630631 4.3068592-1.0630631 1.9963899 0 2.5812274 1.0630631 4.3212996 1.0234234 1.7906137-.0288288 2.9193743-1.6 3.9963899-3.2072072 1.2888087-1.8246246 1.8062575-3.6228228 1.8267148-3.7141141-.0421179-.0144144-3.478941-1.3225225-3.5126354-5.2840841"/><path d="m26.5186522 14.6198198c.8977136-1.1207207 1.511432-2.645045 1.3417569-4.1933934-1.2996389.0576577-2.9241877.8972973-3.8604091 1.993994-.8279182.9657658-1.566787 2.548949-1.3766546 4.0372373 1.4596871.1093093 2.9590854-.7351352 3.8953068-1.8378379"/><path d="m45.7990373 30.6918919h4.5150421l-2.2262334-6.542943h-.0613719zm5.1058965 1.8606607h-5.6955475l-1.3682311 4.0312312h-2.4127557l5.3959086-14.9165165h2.5066185l5.3947052 14.9165165h-2.4536703z"/><path d="m64.0794224 31.1471471c0-2.2018018-1.1407942-3.6492492-2.8796631-3.6492492-1.7087846 0-2.8580024 1.4774775-2.8580024 3.6492492 0 2.190991 1.1492178 3.6588589 2.8580024 3.6588589 1.7388689 0 2.8796631-1.4378378 2.8796631-3.6588589zm2.2984356 0c0 3.378979-1.8122744 5.5507508-4.5475331 5.5507508-1.5523466 0-2.7845969-.6930931-3.4271961-1.9027027h-.0517449v5.3861862h-2.2370638v-14.4732733h2.1648616v1.809009h.0409146c.622142-1.1663663 1.9482551-1.9219219 3.469314-1.9219219 2.765343 0 4.5884477 2.1813814 4.5884477 5.5519519z"/><path d="m76.0697954 31.1471471c0-2.2018018-1.1395908-3.6492492-2.8784597-3.6492492-1.7087846 0-2.8580024 1.4774775-2.8580024 3.6492492 0 2.190991 1.1492178 3.6588589 2.8580024 3.6588589 1.7388689 0 2.8784597-1.4378378 2.8784597-3.6588589zm2.2984356 0c0 3.378979-1.811071 5.5507508-4.5463297 5.5507508-1.5523465 0-2.7845968-.6930931-3.4271961-1.9027027h-.0517449v5.3861862h-2.2370638v-14.4732733h2.1648616v1.809009h.0409146c.622142-1.1663663 1.9470517-1.9219219 3.4693141-1.9219219 2.7653429 0 4.5872442 2.1813814 4.5872442 5.5519519z"/><path d="m86.2948255 32.4276276c.1648616 1.4798799 1.6052948 2.4504505 3.5716005 2.4504505 1.8856799 0 3.2418772-.9705706 3.2418772-2.3051051 0-1.157958-.8182912-1.8510511-2.7545126-2.3255256l-1.9374248-.466066c-2.7436823-.6618619-4.0180505-1.9423424-4.0180505-4.0216216 0-2.572973 2.2478941-4.3411412 5.4380265-4.3411412 3.1576414 0 5.322503 1.7681682 5.3947051 4.3411412h-2.257521c-.1347774-1.4882883-1.3682311-2.3867868-3.1684717-2.3867868-1.8026475 0-3.0348978.9093093-3.0348978 2.2318318 0 1.0546547.7870036 1.6756757 2.7135981 2.1513514l1.6462094.4024024c3.0661853.7243243 4.3405535 1.9531531 4.3405535 4.1357357 0 2.7903904-2.2274368 4.5381381-5.768953 4.5381381-3.3140794 0-5.5523466-1.7069069-5.6967509-4.4048048z"/><path d="m100.296029 23.1351351v2.572973h2.072202v1.7681682h-2.072202v5.9951952c0 .9321321.415162 1.3657657 1.326113 1.3657657.227437 0 .590854-.0312312.735259-.0516516v1.7573573c-.247894.0624625-.744886.1033033-1.241878.1033033-2.2057757 0-3.0661849-.8276276-3.0661849-2.9357357v-6.2342342h-1.5836341v-1.7681682h1.5836341v-2.572973z"/><path d="m111.624549 31.1471471c0-2.3471471-1.077016-3.7333333-2.88929-3.7333333-1.812275 0-2.888087 1.3957958-2.888087 3.7333333 0 2.3567568 1.075812 3.730931 2.888087 3.730931 1.812274 0 2.88929-1.3741742 2.88929-3.730931zm-8.056559 0c0-3.4222222 2.019254-5.5723723 5.167269-5.5723723 3.158844 0 5.168471 2.1501501 5.168471 5.5723723 0 3.4306307-1.998796 5.5711712-5.168471 5.5711712-3.168472 0-5.167269-2.1405405-5.167269-5.5711712z"/><path d="m115.747292 25.7081081h2.133574v1.8510511h.051745c.341757-1.2300301 1.33574-1.963964 2.619736-1.963964.321299 0 .589651.042042.766546.0828829v2.0876877c-.176895-.0720721-.570397-.1345346-1.004814-.1345346-1.439229 0-2.329723.972973-2.329723 2.5021021v6.4504505h-2.237064z"/><path d="m124.069795 30.1441441h5.44645c-.051744-1.6648648-1.11793-2.7603603-2.67148-2.7603603-1.542719 0-2.660649 1.1171171-2.77497 2.7603603zm7.559567 3.2456457c-.300842 1.9747748-2.226233 3.3285285-4.690734 3.3285285-3.169675 0-5.137184-2.1189189-5.137184-5.5195195 0-3.4114114 1.978339-5.624024 5.043321-5.624024 3.014441 0 4.909748 2.0672672 4.909748 5.3645645v.7651652h-7.695548v.1345345c0 1.8606607 1.170879 3.0798799 2.931408 3.0798799 1.241877 0 2.216607-.5885886 2.516246-1.5291291z"/><path d="m44.0409146 16.5933934h1.3537906c1.501805 0 2.3670277-.9333333 2.3670277-2.5777778 0-1.6192192-.8796631-2.5633633-2.3670277-2.5633633h-1.3537906zm1.4777376-6.1537538c2.1299639 0 3.3790614 1.3057057 3.3790614 3.5615616 0 2.2894895-1.2394705 3.606006-3.3790614 3.606006h-2.5932611v-7.1675676z"/><path d="m54.1684717 14.8996997c0-1.1723724-.5282792-1.8570571-1.4536703-1.8570571-.9302045 0-1.4524669.6846847-1.4524669 1.8570571 0 1.181982.5222624 1.8630631 1.4524669 1.8630631.9253911 0 1.4536703-.6858859 1.4536703-1.8630631zm-4.0108303 0c0-1.7429429.9747292-2.806006 2.55716-2.806006 1.5776174 0 2.55355 1.0630631 2.55355 2.806006 0 1.7537538-.9711191 2.812012-2.55355 2.812012-1.5872442 0-2.55716-1.0582582-2.55716-2.812012z"/><path d="m62.0613718 17.6072072h-1.1095066l-1.1191336-3.9843844h-.0854392l-1.1143201 3.9843844h-1.0986763l-1.4945848-5.409009h1.0854392l.9699158 4.1273273h.0806257l1.1143201-4.1273273h1.0252708l1.1143201 4.1273273h.0842358l.9663057-4.1273273h1.0697954z"/><path d="m64.8062575 12.1981982h1.0288809v.8588589h.0794224c.2635379-.6006006.801444-.9633634 1.6173285-.9633634 1.2093863 0 1.8760529.7243243 1.8760529 2.012012v3.5015015h-1.0697954v-3.2336336c0-.8696697-.377858-1.3021021-1.1696751-1.3021021-.7906137 0-1.2936221.5273273-1.2936221 1.3705705v3.1651652h-1.0685921z"/><path d="m71.1119134 17.6072072h1.0697954v-7.5207207h-1.0697954z"/><path d="m77.6787004 14.8996997c0-1.1723724-.5282792-1.8570571-1.4536703-1.8570571-.9302046 0-1.4524669.6846847-1.4524669 1.8570571 0 1.181982.5222623 1.8630631 1.4524669 1.8630631.9253911 0 1.4536703-.6858859 1.4536703-1.8630631zm-4.0108304 0c0-1.7429429.9747293-2.806006 2.5571601-2.806006 1.5776173 0 2.5535499 1.0630631 2.5535499 2.806006 0 1.7537538-.9711191 2.812012-2.5535499 2.812012-1.5872443 0-2.5571601-1.0582582-2.5571601-2.812012z"/><path d="m83.387485 15.6156156v-.4528528l-1.3225031.084084c-.746089.0504505-1.0842358.303904-1.0842358.7807808 0 .4864865.4223827.76997 1.0036101.76997.8062575 0 1.4031288-.5117117 1.4031288-1.181982zm-3.4825512.4612613c0-.972973.7256318-1.5351352 2.0156438-1.6144144l1.4669074-.0840841v-.4672673c0-.5705706-.377858-.8936937-1.1083033-.8936937-.5968712 0-1.0108303.2186186-1.1299639.6006006h-1.0348977c.1095066-.9285285.9843562-1.5243243 2.2141998-1.5243243 1.358604 0 2.123947.6750751 2.123947 1.8174174v3.6960961h-1.0288809v-.7603604h-.0854392c-.322503.5417418-.9145608.8492493-1.6269555.8492493-1.0445246 0-1.8062575-.6306306-1.8062575-1.6192192z"/><path d="m86.9626955 14.8996997c0 1.1471471.5415163 1.8378378 1.4476535 1.8378378.9013237 0 1.4584837-.7003003 1.4584837-1.833033 0-1.1267267-.5631769-1.8378378-1.4584837-1.8378378-.9001204 0-1.4476535.6954955-1.4476535 1.833033zm-1.1046931 0c0-1.7093093.8808664-2.7915916 2.2490975-2.7915916.7424789 0 1.368231.3531532 1.6618532.948949h.0806257v-2.9705706h1.0685921v7.5207207h-1.0240674v-.8552552h-.0854392c-.322503.5921921-.9554754.9441441-1.7015644.9441441-1.377858 0-2.2490975-1.0822823-2.2490975-2.7963964z"/><path d="m99.3537906 14.8996997c0-1.1723724-.5282792-1.8570571-1.4536703-1.8570571-.9302045 0-1.4524669.6846847-1.4524669 1.8570571 0 1.181982.5222624 1.8630631 1.4524669 1.8630631.9253911 0 1.4536703-.6858859 1.4536703-1.8630631zm-4.0108303 0c0-1.7429429.9759326-2.806006 2.55716-2.806006 1.5776174 0 2.5535497 1.0630631 2.5535497 2.806006 0 1.7537538-.9711189 2.812012-2.5535497 2.812012-1.5860409 0-2.55716-1.0582582-2.55716-2.812012z"/><path d="m101.88929 12.1981982h1.028881v.8588589h.079422c.263538-.6006006.801444-.9633634 1.617329-.9633634 1.209386 0 1.876053.7243243 1.876053 2.012012v3.5015015h-1.069796v-3.2336336c0-.8696697-.377858-1.3021021-1.169675-1.3021021-.790614 0-1.293622.5273273-1.293622 1.3705705v3.1651652h-1.068592z"/><path d="m112.533093 10.8516517v1.3705705h1.174488v.8996997h-1.174488v2.7807808c0 .566967.234657.8156156.766546.8156156.164862 0 .258724-.0108108.407942-.0252252v.8888889c-.174488.03003-.374248.0552552-.582431.0552552-1.188929 0-1.661853-.418018-1.661853-1.4606606v-3.0546547h-.860409v-.8996997h.860409v-1.3705705z"/><path d="m115.168472 10.0864865h1.060168v2.9801802h.084236c.262335-.6054054.835138-.9681682 1.652226-.9681682 1.154032 0 1.866426.7303303 1.866426 2.0168168v3.4918919h-1.070999v-3.2288288c0-.8636637-.403128-1.3021021-1.158844-1.3021021-.876053 0-1.364621.5525525-1.364621 1.3717717v3.1591592h-1.068592z"/><path d="m122.304452 14.4036036h2.737666c-.025271-.8492492-.54272-1.4018018-1.334537-1.4018018-.790613 0-1.34296.5573574-1.403129 1.4018018zm3.761733 1.7429429c-.24308.9693694-1.109506 1.5651652-2.347773 1.5651652-1.552347 0-2.503009-1.0630631-2.503009-2.7927928 0-1.7285285.971119-2.8252252 2.498195-2.8252252 1.507822 0 2.417569 1.0282282 2.417569 2.7267267v.3723724h-3.826715v.0600601c.036102.9477477.588448 1.5495495 1.44284 1.5495495.648617 0 1.091456-.2342342 1.290012-.6558559z"/></g></g></svg>